<svg width="40" height="40" viewBox="0 0 40 40" fill="none" xmlns="http://www.w3.org/2000/svg">
<rect x="1" y="1" width="38" height="38" rx="19" stroke="#BC1111" stroke-width="2"/>
<path d="M22.3556 20.0012L30.5122 11.8452C30.8158 11.5309 30.9838 11.1099 30.98 10.6729C30.9762 10.2359 30.8009 9.81785 30.4919 9.50883C30.1829 9.19982 29.7649 9.02454 29.3279 9.02074C28.8909 9.01694 28.4699 9.18493 28.1556 9.48853L19.9989 17.6445L11.8429 9.48853C11.6882 9.33366 11.5045 9.2108 11.3024 9.12697C11.1002 9.04315 10.8834 9 10.6646 9C10.4457 9 10.229 9.04315 10.0268 9.12697C9.82458 9.2108 9.6409 9.33366 9.48623 9.48853C9.33136 9.6432 9.2085 9.82688 9.12467 10.0291C9.04085 10.2313 8.9977 10.448 8.9977 10.6669C8.9977 10.8857 9.04085 11.1025 9.12467 11.3047C9.2085 11.5068 9.33136 11.6905 9.48623 11.8452L17.6422 20.0012L9.46756 28.1765C9.23399 28.4094 9.07483 28.7064 9.01025 29.0298C8.94568 29.3533 8.97861 29.6886 9.10486 29.9933C9.23112 30.298 9.44501 30.5584 9.71942 30.7414C9.99383 30.9244 10.3164 31.0218 10.6462 31.0212C11.0729 31.0212 11.4996 30.8585 11.8249 30.5332L19.9996 22.3579L28.1556 30.5139C28.3102 30.6688 28.4939 30.7917 28.6962 30.8755C28.8985 30.9592 29.1153 31.0022 29.3342 31.0019C29.6638 31.0018 29.9859 30.904 30.2599 30.7209C30.5339 30.5378 30.7475 30.2776 30.8736 29.9732C30.9997 29.6687 31.0328 29.3337 30.9686 29.0105C30.9044 28.6873 30.7458 28.3903 30.5129 28.1572L22.3556 20.0012Z" fill="#BC1111"/>
</svg>
